<?xml version="1.0" encoding="UTF-8"?>
<svg width="500px" height="463px" viewBox="0 0 500 463" version="1.1" xmlns="http://www.w3.org/2000/svg" xmlns:xlink="http://www.w3.org/1999/xlink">
    <title>Inruil_label_zwart</title>
    <defs>
        <polygon id="path-1" points="0 0 415 0 415 399 0 399"></polygon>
        <linearGradient x1="2.44317747%" y1="83.8956803%" x2="77.2500392%" y2="11.4398261%" id="linearGradient-3">
            <stop stop-color="#DEFF00" offset="0%"></stop>
            <stop stop-color="#00C300" offset="54.0699537%"></stop>
            <stop stop-color="#00C300" offset="100%"></stop>
        </linearGradient>
    </defs>
    <g id="Inruil_label_zwart" stroke="none" stroke-width="1" fill="none" fill-rule="evenodd">
        <g id="Group-3" transform="translate(59.000000, 36.000000)">
            <mask id="mask-2" fill="white">
                <use xlink:href="#path-1"></use>
            </mask>
            <g id="Clip-2"></g>
            <path d="M149.999045,2.01625292 C265.792522,-11.9907403 400.283146,47.8534364 413.564116,154.407968 C426.843988,260.9625 345.678781,302.737325 266.427878,338.36262 C187.176426,373.987915 174.434712,389.640626 105.682283,397.956856 C36.9298546,406.273626 7.75290542,363.734911 1.11269481,310.457375 C-5.52696666,257.180379 14.3036061,18.4301487 149.999045,2.01625292" id="Fill-1" fill="url(#linearGradient-3)" mask="url(#mask-2)"></path>
        </g>
        <g id="Group-16" transform="translate(96.158000, 138.678000)" fill="#232323" fill-rule="nonzero">
            <g id="Deal" transform="translate(92.039443, 90.189952)">
                <path d="M29.862,60.984 L23.94,60.984 L23.94,25.326 L29.862,25.326 C40.698,25.326 46.872,32.256 46.872,43.218 C46.872,54.054 40.698,60.984 29.862,60.984 Z M31.122,4.536 L0,4.536 L0,81.9 L31.122,81.9 C56.196,81.9 70.938,66.78 70.938,43.218 C70.938,19.656 56.196,4.536 31.122,4.536 Z" id="Shape"></path>
                <path d="M97.524,58.842 L130.914,58.842 L130.914,52.416 C130.914,35.28 121.338,23.436 102.564,23.436 C86.436,23.436 74.088,35.658 74.088,53.676 C74.088,72.198 86.94,83.16 106.218,83.16 C114.912,83.16 122.472,81.144 126.756,78.12 L126.756,60.732 C120.708,64.008 116.046,64.89 110.124,64.89 C103.95,64.89 99.54,63.252 97.524,58.842 Z M103.698,41.076 C107.1,41.076 109.368,43.344 109.872,46.998 L97.02,46.998 C98.028,43.47 100.17,41.076 103.698,41.076 Z" id="Shape"></path>
                <path d="M167.58,48.636 L167.58,49.644 C165.312,48.006 160.146,46.62 155.61,46.62 C143.388,46.62 133.812,53.424 133.812,64.638 C133.812,76.86 143.388,82.908 154.35,82.908 C160.398,82.908 165.69,81.018 167.58,79.128 L167.58,81.9 L190.638,81.9 L190.638,47.88 C190.638,31.5 180.18,23.436 162.162,23.436 C153.594,23.436 145.656,25.326 140.49,27.72 L140.49,46.116 C144.9,43.722 150.948,42.462 155.862,42.462 C164.052,42.462 167.58,45.36 167.58,48.636 Z M167.58,62.874 L167.58,65.394 C166.446,67.032 164.304,68.166 161.532,68.166 C158.76,68.166 155.988,66.906 155.988,64.134 C155.988,61.362 158.76,60.102 161.532,60.102 C164.304,60.102 166.446,61.236 167.58,62.874 Z" id="Shape"></path>
                <polygon id="Path" points="222.138 81.9 222.138 0 198.198 0 198.198 81.9"></polygon>
            </g>
            <g id="Inruil">
                <polygon id="Path" points="24.444 84.042 24.444 6.678 0 6.678 0 84.042"></polygon>
                <path d="M32.508,26.838 L32.508,84.042 L56.448,84.042 L56.448,51.282 C57.204,48.384 59.598,46.62 62.496,46.62 C66.276,46.62 68.04,49.392 68.04,52.794 L68.04,84.042 L91.98,84.042 L91.98,46.368 C91.98,33.642 84.168,25.578 71.694,25.578 C65.268,25.578 59.598,27.972 56.448,31.5 L56.448,26.838 L32.508,26.838 Z" id="Path"></path>
                <path d="M141.624,49.266 L141.624,26.586 C140.742,26.082 138.978,25.578 136.71,25.578 C130.788,25.578 126.63,27.972 123.606,31.5 L123.606,26.838 L99.666,26.838 L99.666,84.042 L123.606,84.042 L123.606,52.542 C124.362,49.644 127.512,47.502 132.93,47.502 C136.458,47.502 138.852,48.006 141.624,49.266 Z" id="Path"></path>
                <path d="M206.64,84.042 L206.64,26.838 L182.7,26.838 L182.7,59.976 C181.944,62.874 179.424,64.638 176.778,64.638 C172.998,64.638 171.36,61.866 171.36,58.464 L171.36,26.838 L147.42,26.838 L147.42,64.512 C147.42,77.238 155.232,85.302 167.58,85.302 C174.006,85.302 179.676,82.908 182.826,79.38 L182.826,84.042 L206.64,84.042 Z" id="Path"></path>
                <path d="M238.392,84.042 L238.392,26.838 L214.452,26.838 L214.452,84.042 L238.392,84.042 Z M239.652,12.348 C239.652,4.536 233.604,0 226.422,0 C219.24,0 213.192,4.536 213.192,12.348 C213.192,20.16 219.24,24.696 226.422,24.696 C233.604,24.696 239.652,20.16 239.652,12.348 Z" id="Shape"></path>
                <polygon id="Path" points="270.144 84.042 270.144 2.142 246.204 2.142 246.204 84.042"></polygon>
            </g>
        </g>
    </g>
</svg>